<svg width="114" height="16" viewBox="0 0 114 16" fill="none" xmlns="http://www.w3.org/2000/svg">
<path d="M102.173 11.8158C101.473 11.8158 100.96 11.6805 100.633 11.4098C100.316 11.1298 100.157 10.6352 100.157 9.92582V8.66582C100.157 7.91916 100.325 7.40116 100.661 7.11182C101.007 6.81316 101.576 6.66382 102.369 6.66382H104.567V4.71782C104.567 4.59649 104.507 4.53582 104.385 4.53582L100.675 4.54982V3.10782H104.007C104.81 3.09849 105.389 3.25249 105.743 3.56982C106.098 3.87782 106.275 4.41916 106.275 5.19382V11.6898H104.749L104.609 10.7238C104.535 11.0878 104.371 11.3632 104.119 11.5498C103.877 11.7272 103.527 11.8158 103.069 11.8158H102.173ZM104.567 10.4438V7.89582H102.019C101.898 7.89582 101.837 7.95649 101.837 8.07782V10.2478C101.837 10.3785 101.898 10.4438 102.019 10.4438H104.567Z" fill="#1E1E1E"/>
<path d="M99.5536 4.45199H97.5516V10.08C97.5516 10.2013 97.6123 10.262 97.7336 10.262H99.5536V11.69H98.2516C97.4116 11.69 96.8003 11.5267 96.4176 11.2C96.0443 10.8733 95.8576 10.3273 95.8576 9.56199V4.45199H94.8496V3.12199H95.8576V0.937988H97.5516V3.12199H99.5536V4.45199Z" fill="#1E1E1E"/>
<path d="M87.38 2.99609C87.9306 2.99609 88.3647 3.08009 88.682 3.24809C88.9993 3.41609 89.214 3.70076 89.326 4.10209C89.494 3.36476 90.026 2.99609 90.922 2.99609H91.706C92.4153 2.99609 92.9286 3.13609 93.246 3.41609C93.5726 3.69609 93.736 4.19076 93.736 4.90009V11.6901H92.042V4.56409C92.042 4.43343 91.9813 4.36809 91.86 4.36809H89.606C89.4846 4.36809 89.424 4.43343 89.424 4.56409L89.41 4.62009C89.4193 4.71343 89.424 4.80676 89.424 4.90009V11.6901H87.716V4.56409C87.716 4.43343 87.6553 4.36809 87.534 4.36809H85.252C85.1307 4.36809 85.07 4.43343 85.07 4.56409L85.098 11.6901H83.39L83.376 3.12209H84.888L85.014 3.99009C85.2006 3.32743 85.7186 2.99609 86.568 2.99609H87.38Z" fill="#1E1E1E"/>
<path d="M77.407 11.816C76.6976 11.816 76.1796 11.6807 75.853 11.41C75.5356 11.13 75.377 10.6353 75.377 9.926V3.122H77.071V10.248C77.071 10.3787 77.1316 10.444 77.253 10.444H79.899L79.885 3.122H81.579L81.607 11.69H80.095L79.941 10.752C79.8663 11.1067 79.703 11.3727 79.451 11.55C79.199 11.7273 78.849 11.816 78.401 11.816H77.407ZM76.119 1.68V0H77.645V1.68H76.119ZM79.269 1.68V0H80.781V1.68H79.269Z" fill="#1E1E1E"/>
<path d="M69.9959 11.6899V2.11389H67.2939V0.587891H74.4479V2.11389H71.7599V11.6899H69.9959Z" fill="#1E1E1E"/>
<path d="M59.0248 11.8158C58.3248 11.8158 57.8115 11.6805 57.4848 11.4098C57.1675 11.1298 57.0088 10.6352 57.0088 9.92582V8.66582C57.0088 7.91916 57.1768 7.40116 57.5128 7.11182C57.8581 6.81316 58.4275 6.66382 59.2208 6.66382H61.4188V4.71782C61.4188 4.59649 61.3581 4.53582 61.2368 4.53582L57.5268 4.54982V3.10782H60.8588C61.6615 3.09849 62.2401 3.25249 62.5948 3.56982C62.9495 3.87782 63.1268 4.41916 63.1268 5.19382V11.6898H61.6008L61.4608 10.7238C61.3861 11.0878 61.2228 11.3632 60.9708 11.5498C60.7281 11.7272 60.3781 11.8158 59.9208 11.8158H59.0248ZM61.4188 10.4438V7.89582H58.8708C58.7495 7.89582 58.6888 7.95649 58.6888 8.07782V10.2478C58.6888 10.3785 58.7495 10.4438 58.8708 10.4438H61.4188Z" fill="#1E1E1E"/>
<path d="M53.6738 1.59583V0.027832H55.3818V1.59583H53.6738ZM53.6738 11.6898V3.12183H55.3818V11.6898H53.6738Z" fill="#1E1E1E"/>
<path d="M52.588 2.99609V4.36809H50.474C50.3433 4.36809 50.278 4.43343 50.278 4.56409L50.292 11.6901H48.612L48.584 3.12209H50.096L50.222 3.99009C50.4087 3.32743 50.9267 2.99609 51.776 2.99609H52.588Z" fill="#1E1E1E"/>
<path d="M42.7279 11.8158C42.0279 11.8158 41.5146 11.6805 41.1879 11.4098C40.8706 11.1298 40.7119 10.6352 40.7119 9.92582V8.66582C40.7119 7.91916 40.8799 7.40116 41.2159 7.11182C41.5612 6.81316 42.1306 6.66382 42.9239 6.66382H45.1219V4.71782C45.1219 4.59649 45.0612 4.53582 44.9399 4.53582L41.2299 4.54982V3.10782H44.5619C45.3646 3.09849 45.9432 3.25249 46.2979 3.56982C46.6526 3.87782 46.8299 4.41916 46.8299 5.19382V11.6898H45.3039L45.1639 10.7238C45.0892 11.0878 44.9259 11.3632 44.6739 11.5498C44.4312 11.7272 44.0812 11.8158 43.6239 11.8158H42.7279ZM45.1219 10.4438V7.89582H42.5739C42.4526 7.89582 42.3919 7.95649 42.3919 8.07782V10.2478C42.3919 10.3785 42.4526 10.4438 42.5739 10.4438H45.1219Z" fill="#1E1E1E"/>
<path d="M37.9377 0.587891C38.3577 0.587891 38.6517 0.681224 38.8197 0.86789C38.9971 1.04522 39.0857 1.33456 39.0857 1.73589V11.6899H37.3917V3.33189L34.8297 8.28789H33.7937L31.3157 3.38789V11.6899H29.7617V0.587891H30.7137C31.0217 0.587891 31.2457 0.639224 31.3857 0.74189C31.5257 0.835224 31.6564 1.01256 31.7777 1.27389L34.4237 6.34189L37.4057 0.587891H37.9377Z" fill="#1E1E1E"/>
<path d="M20.4428 11.8158C19.7428 11.8158 19.2294 11.6805 18.9028 11.4098C18.5854 11.1298 18.4268 10.6352 18.4268 9.92582V8.66582C18.4268 7.91916 18.5948 7.40116 18.9308 7.11182C19.2761 6.81316 19.8454 6.66382 20.6388 6.66382H22.8368V4.71782C22.8368 4.59649 22.7761 4.53582 22.6548 4.53582L18.9448 4.54982V3.10782H22.2768C23.0794 3.09849 23.6581 3.25249 24.0128 3.56982C24.3674 3.87782 24.5448 4.41916 24.5448 5.19382V11.6898H23.0188L22.8788 10.7238C22.8041 11.0878 22.6408 11.3632 22.3888 11.5498C22.1461 11.7272 21.7961 11.8158 21.3388 11.8158H20.4428ZM22.8368 10.4438V7.89582H20.2888C20.1674 7.89582 20.1068 7.95649 20.1068 8.07782V10.2478C20.1068 10.3785 20.1674 10.4438 20.2888 10.4438H22.8368Z" fill="#1E1E1E"/>
<path d="M18.3673 2.99609V4.36809H16.2533C16.1226 4.36809 16.0573 4.43343 16.0573 4.56409L16.0713 11.6901H14.3913L14.3633 3.12209H15.8753L16.0013 3.99009C16.1879 3.32743 16.7059 2.99609 17.5553 2.99609H18.3673Z" fill="#1E1E1E"/>
<path d="M8.50721 11.8158C7.80721 11.8158 7.29388 11.6805 6.96721 11.4098C6.64988 11.1298 6.49121 10.6352 6.49121 9.92582V8.66582C6.49121 7.91916 6.65921 7.40116 6.99521 7.11182C7.34054 6.81316 7.90988 6.66382 8.70321 6.66382H10.9012V4.71782C10.9012 4.59649 10.8405 4.53582 10.7192 4.53582L7.00921 4.54982V3.10782H10.3412C11.1439 3.09849 11.7225 3.25249 12.0772 3.56982C12.4319 3.87782 12.6092 4.41916 12.6092 5.19382V11.6898H11.0832L10.9432 10.7238C10.8685 11.0878 10.7052 11.3632 10.4532 11.5498C10.2105 11.7272 9.86054 11.8158 9.40321 11.8158H8.50721ZM10.9012 10.4438V7.89582H8.35321C8.23188 7.89582 8.17121 7.95649 8.17121 8.07782V10.2478C8.17121 10.3785 8.23188 10.4438 8.35321 10.4438H10.9012Z" fill="#1E1E1E"/>
<path d="M5.894 11.6899H0V0.587891H1.764V10.1639H5.894V11.6899Z" fill="#1E1E1E"/>
<path d="M112.212 13.6403C112.212 13.939 112.133 14.191 111.974 14.3963C111.825 14.611 111.596 14.7743 111.288 14.8863C110.98 14.9983 110.598 15.0543 110.14 15.0543C110 15.0543 109.865 15.045 109.734 15.0263C109.613 15.017 109.515 15.003 109.44 14.9843V14.2143C109.524 14.233 109.636 14.247 109.776 14.2563C109.916 14.275 110.052 14.2843 110.182 14.2843C110.518 14.2843 110.775 14.2377 110.952 14.1443C111.13 14.0603 111.218 13.9017 111.218 13.6683C111.218 13.4257 111.092 13.2483 110.84 13.1363C110.598 13.0243 110.299 12.945 109.944 12.8983L110.546 11.6943H111.358L110.994 12.4363C111.218 12.483 111.424 12.553 111.61 12.6463C111.797 12.749 111.942 12.8797 112.044 13.0383C112.156 13.197 112.212 13.3977 112.212 13.6403Z" fill="#1E1E1E"/>
<path d="M108.154 11.7364L108.14 10.3644H111.92C112.051 10.3644 112.116 10.3037 112.116 10.1824V8.2084C112.116 8.07773 112.051 8.0124 111.92 8.0124H110.226C109.423 8.0124 108.849 7.86773 108.504 7.5784C108.168 7.27973 108 6.75707 108 6.0104V5.0864C108 4.31173 108.177 3.7704 108.532 3.4624C108.896 3.14507 109.475 2.99107 110.268 3.0004H113.348V4.4284L109.904 4.4144C109.783 4.4144 109.722 4.47973 109.722 4.6104V6.4864C109.722 6.61707 109.783 6.6824 109.904 6.6824H111.584C112.387 6.6824 112.956 6.82707 113.292 7.1164C113.628 7.3964 113.796 7.9144 113.796 8.6704V9.8464C113.796 10.5557 113.633 11.0504 113.306 11.3304C112.989 11.6011 112.475 11.7364 111.766 11.7364H108.154Z" fill="#1E1E1E"/>
</svg>
