<svg width="107" height="64" viewBox="0 0 107 64" fill="none" xmlns="http://www.w3.org/2000/svg">
<path d="M29.9715 44.7026H43.3345C44.0345 44.7026 44.3845 45.1157 44.3845 45.9419V61.5214C44.3845 63.1738 43.4936 64 41.7119 64H18.6128V55.5906H27.4897C28.5079 55.5906 29.017 55.5021 29.017 55.325C29.0806 55.089 29.1124 54.8234 29.1124 54.5284V45.6763C29.1124 45.2042 29.176 44.9387 29.3033 44.8797C29.4306 44.7616 29.6533 44.7026 29.9715 44.7026ZM15.2721 64H5.24978C3.08623 64 1.65448 63.6754 0.954505 63.0263C0.318168 62.3771 0 61.0198 0 58.9544V5.04565C0 2.98018 0.318168 1.62287 0.954505 0.973724C1.65448 0.324575 3.08623 0 5.24978 0H15.2721V64Z" fill="#3571A7"/>
<path d="M78.5557 0H92.8732C97.5185 0 101.018 0.737668 103.373 2.213C105.791 3.68834 107 6.25542 107 9.91425V58.9544C107 61.0198 106.65 62.3771 105.95 63.0263C105.314 63.6754 103.914 64 101.75 64H91.7278V10.9765C91.7278 10.0323 91.5688 9.38313 91.2506 9.02904C90.9961 8.61595 90.2961 8.40941 89.1507 8.40941H78.5557V0ZM43.9071 39.2144H33.8848C31.7213 39.2144 30.2895 38.8898 29.5896 38.2407C28.9532 37.5915 28.6351 36.2342 28.6351 34.1687V3.5408C28.6351 2.47856 28.9532 1.62287 29.5896 0.973724C30.2259 0.324575 31.0531 0 32.0713 0H43.9071V39.2144ZM47.8206 0H72.2559C73.2741 0 74.1013 0.324575 74.7376 0.973724C75.374 1.62287 75.6921 2.47856 75.6921 3.5408V57.538H65.7653C63.8563 57.538 62.4882 57.0659 61.6609 56.1217C60.8337 55.1185 60.4201 53.5251 60.4201 51.3416V10.9765C60.4201 10.0323 60.261 9.38313 59.9428 9.02904C59.6883 8.61595 58.9883 8.40941 57.8429 8.40941H47.8206V0Z" fill="#1E1E1E"/>
</svg>
