<svg width="279" height="64" viewBox="0 0 279 64" fill="none" xmlns="http://www.w3.org/2000/svg">
<path d="M29.9715 44.7026H43.3345C44.0345 44.7026 44.3845 45.1157 44.3845 45.9419V61.5214C44.3845 63.1738 43.4936 64 41.7119 64H18.6128V55.5906H27.4897C28.5079 55.5906 29.017 55.5021 29.017 55.325C29.0806 55.089 29.1124 54.8234 29.1124 54.5284V45.6763C29.1124 45.2042 29.176 44.9387 29.3033 44.8797C29.4306 44.7616 29.6533 44.7026 29.9715 44.7026ZM15.2721 64H5.24978C3.08623 64 1.65448 63.6754 0.954505 63.0263C0.318168 62.3771 0 61.0198 0 58.9544V5.04565C0 2.98018 0.318168 1.62287 0.954505 0.973724C1.65448 0.324575 3.08623 0 5.24978 0H15.2721V64Z" fill="#3571A7"/>
<path d="M78.5557 0H92.8732C97.5185 0 101.018 0.737668 103.373 2.213C105.791 3.68834 107 6.25542 107 9.91425V58.9544C107 61.0198 106.65 62.3771 105.95 63.0263C105.314 63.6754 103.914 64 101.75 64H91.7279V10.9765C91.7279 10.0323 91.5688 9.38313 91.2506 9.02904C90.9961 8.61595 90.2961 8.40941 89.1507 8.40941H78.5557V0ZM43.9072 39.2144H33.8849C31.7213 39.2144 30.2896 38.8898 29.5896 38.2407C28.9533 37.5915 28.6351 36.2342 28.6351 34.1687V3.5408C28.6351 2.47856 28.9533 1.62287 29.5896 0.973724C30.2259 0.324575 31.0532 0 32.0713 0H43.9072V39.2144ZM47.8206 0H72.2559C73.2741 0 74.1013 0.324575 74.7377 0.973724C75.374 1.62287 75.6922 2.47856 75.6922 3.5408V57.538H65.7653C63.8563 57.538 62.4882 57.0659 61.661 56.1217C60.8337 55.1185 60.4201 53.5251 60.4201 51.3416V10.9765C60.4201 10.0323 60.261 9.38313 59.9428 9.02904C59.6883 8.61595 58.9883 8.40941 57.8429 8.40941H47.8206V0Z" fill="#1E1E1E"/>
<path d="M122.7 27.64H125.5C125.647 27.64 125.72 27.7333 125.72 27.92V31.44C125.72 31.8133 125.533 32 125.16 32H120.32V30.1H122.18C122.393 30.1 122.5 30.08 122.5 30.04C122.513 29.9867 122.52 29.9267 122.52 29.86V27.86C122.52 27.7533 122.533 27.6933 122.56 27.68C122.587 27.6533 122.633 27.64 122.7 27.64ZM119.62 32H117.52C117.067 32 116.767 31.9267 116.62 31.78C116.487 31.6333 116.42 31.3267 116.42 30.86V18.68C116.42 18.2133 116.487 17.9067 116.62 17.76C116.767 17.6133 117.067 17.54 117.52 17.54H119.62V32ZM132.192 23.5H131.112C130.699 23.5 130.465 23.5733 130.412 23.72C130.332 23.8933 130.292 24.14 130.292 24.46V29.54C130.292 29.5667 130.292 29.6467 130.292 29.78C130.292 29.9133 130.305 30.0267 130.332 30.12C130.385 30.3733 130.645 30.5 131.112 30.5H132.192V32H130.252C129.745 32 129.332 31.98 129.012 31.94C128.692 31.8867 128.412 31.78 128.172 31.62C127.932 31.46 127.752 31.2867 127.632 31.1C127.512 30.9 127.412 30.5867 127.332 30.16C127.239 29.56 127.192 28.72 127.192 27.64C127.192 26.56 127.199 25.8333 127.212 25.46C127.225 25.0733 127.245 24.6667 127.272 24.24C127.312 23.8133 127.372 23.5 127.452 23.3C127.545 23.1 127.659 22.9 127.792 22.7C127.939 22.4867 128.125 22.34 128.352 22.26C128.845 22.0867 129.479 22 130.252 22H132.192V23.5ZM136.692 31.86C136.692 31.9533 136.665 32 136.612 32H134.972C134.225 32 133.672 31.8267 133.312 31.48C132.965 31.1333 132.792 30.5667 132.792 29.78V22H133.612C134.452 22 135.025 22.2 135.332 22.6C135.639 22.9867 135.792 23.5 135.792 24.14V29.74C135.792 30.1533 135.879 30.3867 136.052 30.44C136.145 30.48 136.272 30.5 136.432 30.5H136.532C136.639 30.5 136.692 30.5467 136.692 30.64V31.86ZM140.409 22H142.809C142.889 22 142.929 22.0467 142.929 22.14V23.36C142.929 23.4533 142.876 23.5 142.769 23.5H141.869C141.549 23.5 141.363 23.56 141.309 23.68C141.256 23.8533 141.229 24.0467 141.229 24.26V30.46C141.229 30.9133 141.076 31.2867 140.769 31.58C140.476 31.86 140.036 32 139.449 32H138.229V24.22C138.229 23.4333 138.403 22.8667 138.749 22.52C139.109 22.1733 139.663 22 140.409 22ZM149.321 23.5H148.241C147.827 23.5 147.594 23.5733 147.541 23.72C147.461 23.8933 147.421 24.14 147.421 24.46V29.54C147.421 29.5667 147.421 29.6467 147.421 29.78C147.421 29.9133 147.434 30.0267 147.461 30.12C147.514 30.3733 147.774 30.5 148.241 30.5H149.321V32H147.381C146.874 32 146.461 31.98 146.141 31.94C145.821 31.8867 145.541 31.78 145.301 31.62C145.061 31.46 144.881 31.2867 144.761 31.1C144.641 30.9 144.541 30.5867 144.461 30.16C144.367 29.56 144.321 28.72 144.321 27.64C144.321 26.56 144.327 25.8333 144.341 25.46C144.354 25.0733 144.374 24.6667 144.401 24.24C144.441 23.8133 144.501 23.5 144.581 23.3C144.674 23.1 144.787 22.9 144.921 22.7C145.067 22.4867 145.254 22.34 145.481 22.26C145.974 22.0867 146.607 22 147.381 22H149.321V23.5ZM153.821 31.86C153.821 31.9533 153.794 32 153.741 32H152.101C151.354 32 150.801 31.8267 150.441 31.48C150.094 31.1333 149.921 30.5667 149.921 29.78V22H150.741C151.581 22 152.154 22.2 152.461 22.6C152.767 22.9867 152.921 23.5 152.921 24.14V29.74C152.921 30.1533 153.007 30.3867 153.181 30.44C153.274 30.48 153.401 30.5 153.561 30.5H153.661C153.767 30.5 153.821 30.5467 153.821 30.64V31.86ZM170.239 17.54H173.239C174.213 17.54 174.946 17.7067 175.439 18.04C175.946 18.3733 176.199 18.9533 176.199 19.78V30.86C176.199 31.3267 176.126 31.6333 175.979 31.78C175.846 31.9267 175.553 32 175.099 32H172.999V20.02C172.999 19.8067 172.966 19.66 172.899 19.58C172.846 19.4867 172.699 19.44 172.459 19.44H170.239V17.54ZM162.979 32H160.879C160.426 32 160.126 31.9267 159.979 31.78C159.846 31.6333 159.779 31.3267 159.779 30.86V18.34C159.779 18.1 159.846 17.9067 159.979 17.76C160.113 17.6133 160.286 17.54 160.499 17.54H162.979V32ZM163.799 17.54H168.919C169.133 17.54 169.306 17.6133 169.439 17.76C169.573 17.9067 169.639 18.1 169.639 18.34V30.54H167.559C167.159 30.54 166.873 30.4333 166.699 30.22C166.526 29.9933 166.439 29.6333 166.439 29.14V20.02C166.439 19.8067 166.406 19.66 166.339 19.58C166.286 19.4867 166.139 19.44 165.899 19.44H163.799V17.54ZM183.618 23.5H182.538C182.124 23.5 181.891 23.5733 181.838 23.72C181.758 23.8933 181.718 24.14 181.718 24.46V29.54C181.718 29.5667 181.718 29.6467 181.718 29.78C181.718 29.9133 181.731 30.0267 181.758 30.12C181.811 30.3733 182.071 30.5 182.538 30.5H183.618V32H181.678C181.171 32 180.758 31.98 180.438 31.94C180.118 31.8867 179.838 31.78 179.598 31.62C179.358 31.46 179.178 31.2867 179.058 31.1C178.938 30.9 178.838 30.5867 178.758 30.16C178.664 29.56 178.618 28.72 178.618 27.64C178.618 26.56 178.624 25.8333 178.638 25.46C178.651 25.0733 178.671 24.6667 178.698 24.24C178.738 23.8133 178.798 23.5 178.878 23.3C178.971 23.1 179.084 22.9 179.218 22.7C179.364 22.4867 179.551 22.34 179.778 22.26C180.271 22.0867 180.904 22 181.678 22H183.618V23.5ZM188.118 31.86C188.118 31.9533 188.091 32 188.038 32H186.398C185.651 32 185.098 31.8267 184.738 31.48C184.391 31.1333 184.218 30.5667 184.218 29.78V22H185.038C185.878 22 186.451 22.2 186.758 22.6C187.064 22.9867 187.218 23.5 187.218 24.14V29.74C187.218 30.1533 187.304 30.3867 187.478 30.44C187.571 30.48 187.698 30.5 187.858 30.5H187.958C188.064 30.5 188.118 30.5467 188.118 30.64V31.86ZM191.835 22H194.235C194.315 22 194.355 22.0467 194.355 22.14V23.36C194.355 23.4533 194.302 23.5 194.195 23.5H193.295C192.975 23.5 192.788 23.56 192.735 23.68C192.682 23.8533 192.655 24.0467 192.655 24.26V30.46C192.655 30.9133 192.502 31.2867 192.195 31.58C191.902 31.86 191.462 32 190.875 32H189.655V24.22C189.655 23.4333 189.828 22.8667 190.175 22.52C190.535 22.1733 191.088 22 191.835 22ZM195.887 22.02H197.107C197.693 22.02 198.133 22.1667 198.427 22.46C198.733 22.74 198.887 23.1067 198.887 23.56V32H196.607C196.393 32 196.22 31.9267 196.087 31.78C195.953 31.6333 195.887 31.44 195.887 31.2V22.02ZM196.027 17.76C196.173 17.6133 196.6 17.54 197.307 17.54C198.013 17.54 198.44 17.6133 198.587 17.76C198.733 17.8933 198.807 18.2933 198.807 18.96C198.807 19.6267 198.727 20.0333 198.567 20.18C198.42 20.3267 198 20.4 197.307 20.4C196.613 20.4 196.187 20.3267 196.027 20.18C195.88 20.0333 195.807 19.6267 195.807 18.96C195.807 18.2933 195.88 17.8933 196.027 17.76ZM206.04 23.5H204.96C204.546 23.5 204.313 23.5733 204.26 23.72C204.18 23.8933 204.14 24.14 204.14 24.46V29.54C204.14 29.5667 204.14 29.6467 204.14 29.78C204.14 29.9133 204.153 30.0267 204.18 30.12C204.233 30.3733 204.493 30.5 204.96 30.5H206.04V32H204.1C203.593 32 203.18 31.98 202.86 31.94C202.54 31.8867 202.26 31.78 202.02 31.62C201.78 31.46 201.6 31.2867 201.48 31.1C201.36 30.9 201.26 30.5867 201.18 30.16C201.086 29.56 201.04 28.72 201.04 27.64C201.04 26.56 201.046 25.8333 201.06 25.46C201.073 25.0733 201.093 24.6667 201.12 24.24C201.16 23.8133 201.22 23.5 201.3 23.3C201.393 23.1 201.506 22.9 201.64 22.7C201.786 22.4867 201.973 22.34 202.2 22.26C202.693 22.0867 203.326 22 204.1 22H206.04V23.5ZM210.54 31.86C210.54 31.9533 210.513 32 210.46 32H208.82C208.073 32 207.52 31.8267 207.16 31.48C206.813 31.1333 206.64 30.5667 206.64 29.78V22H207.46C208.3 22 208.873 22.2 209.18 22.6C209.486 22.9867 209.64 23.5 209.64 24.14V29.74C209.64 30.1533 209.726 30.3867 209.9 30.44C209.993 30.48 210.12 30.5 210.28 30.5H210.38C210.486 30.5 210.54 30.5467 210.54 30.64V31.86ZM215.031 17.54H221.291C221.505 17.54 221.678 17.6133 221.811 17.76C221.945 17.9067 222.011 18.1 222.011 18.34V32H219.911C219.458 32 219.158 31.9267 219.011 31.78C218.878 31.6333 218.811 31.3267 218.811 30.86V20.04H215.611C215.225 20.04 215.031 19.72 215.031 19.08V17.54ZM222.811 17.54H226.011C226.398 17.54 226.591 17.86 226.591 18.5V20.04H222.811V17.54ZM226.706 22H228.986C229.199 22 229.373 22.0733 229.506 22.22C229.639 22.3667 229.706 22.56 229.706 22.8V29.9C229.706 30.1133 229.753 30.2667 229.846 30.36C229.953 30.4533 230.179 30.5 230.526 30.5H231.686V32H228.886C227.433 32 226.706 31.2867 226.706 29.86V22ZM236.086 31.86C236.086 31.9533 236.053 32 235.986 32H233.966C233.379 32 232.933 31.86 232.626 31.58C232.333 31.2867 232.186 30.9133 232.186 30.46V22H234.466C234.679 22 234.853 22.0733 234.986 22.22C235.119 22.3667 235.186 22.56 235.186 22.8V29.74C235.186 30.1533 235.273 30.3867 235.446 30.44C235.539 30.48 235.666 30.5 235.826 30.5H235.926C236.033 30.5 236.086 30.5467 236.086 30.64V31.86ZM232.026 18.02H234.366C234.513 18.0467 234.586 18.1667 234.586 18.38C234.586 18.42 234.586 18.4467 234.586 18.46V20.56C234.586 20.64 234.573 20.6933 234.546 20.72C234.519 20.7467 234.459 20.7667 234.366 20.78H232.026C231.933 20.7667 231.873 20.7467 231.846 20.72C231.819 20.6933 231.806 20.64 231.806 20.56V18.2C231.806 18.1733 231.813 18.1533 231.826 18.14C231.839 18.1267 231.853 18.1067 231.866 18.08C231.893 18.04 231.946 18.02 232.026 18.02ZM229.826 18.46V20.28C229.826 20.32 229.826 20.38 229.826 20.46C229.826 20.54 229.826 20.6 229.826 20.64C229.799 20.7333 229.726 20.78 229.606 20.78H227.246C227.113 20.7667 227.046 20.6933 227.046 20.56V18.28C227.046 18.1333 227.113 18.0467 227.246 18.02H229.606C229.753 18.0467 229.826 18.1733 229.826 18.4C229.826 18.4267 229.826 18.4467 229.826 18.46ZM246.623 22H249.343C250.796 22 251.523 22.7133 251.523 24.14V32H249.243C249.03 32 248.856 31.9267 248.723 31.78C248.59 31.6333 248.523 31.44 248.523 31.2V24.1C248.523 23.8867 248.47 23.7333 248.363 23.64C248.27 23.5467 248.05 23.5 247.703 23.5H246.623V22ZM237.703 22H238.923C239.51 22 239.95 22.1467 240.243 22.44C240.55 22.72 240.703 23.0867 240.703 23.54V32H238.423C238.21 32 238.036 31.9267 237.903 31.78C237.77 31.6333 237.703 31.44 237.703 31.2V22ZM241.203 22H243.923C245.376 22 246.103 22.7133 246.103 24.14V32H243.823C243.61 32 243.436 31.9267 243.303 31.78C243.17 31.6333 243.103 31.44 243.103 31.2V24.1C243.103 23.8867 243.05 23.7333 242.943 23.64C242.85 23.5467 242.63 23.5 242.283 23.5H241.203V22ZM258.877 31.84C258.877 31.92 258.837 31.9733 258.757 32H257.237C256.263 32 255.557 31.8067 255.117 31.42C254.677 31.0333 254.457 30.3533 254.457 29.38V23.54H253.437C253.103 23.54 252.937 23.34 252.937 22.94V22H254.457V17.54H255.677C256.263 17.54 256.703 17.6867 256.997 17.98C257.303 18.2733 257.457 18.6467 257.457 19.1V29.74C257.457 30.2333 257.737 30.48 258.297 30.48H258.717C258.823 30.48 258.877 30.5267 258.877 30.62V31.84ZM259.497 22V22.94C259.497 23.34 259.33 23.54 258.997 23.54H257.957V22H259.497ZM265.668 23.5H264.588C264.175 23.5 263.942 23.5733 263.888 23.72C263.808 23.8933 263.768 24.14 263.768 24.46V29.54C263.768 29.5667 263.768 29.6467 263.768 29.78C263.768 29.9133 263.782 30.0267 263.808 30.12C263.862 30.3733 264.122 30.5 264.588 30.5H265.668V32H263.728C263.222 32 262.808 31.98 262.488 31.94C262.168 31.8867 261.888 31.78 261.648 31.62C261.408 31.46 261.228 31.2867 261.108 31.1C260.988 30.9 260.888 30.5867 260.808 30.16C260.715 29.56 260.668 28.72 260.668 27.64C260.668 26.56 260.675 25.8333 260.688 25.46C260.702 25.0733 260.722 24.6667 260.748 24.24C260.788 23.8133 260.848 23.5 260.928 23.3C261.022 23.1 261.135 22.9 261.268 22.7C261.415 22.4867 261.602 22.34 261.828 22.26C262.322 22.0867 262.955 22 263.728 22H265.668V23.5ZM270.168 31.86C270.168 31.9533 270.142 32 270.088 32H268.448C267.702 32 267.148 31.8267 266.788 31.48C266.442 31.1333 266.268 30.5667 266.268 29.78V22H267.088C267.928 22 268.502 22.2 268.808 22.6C269.115 22.9867 269.268 23.5 269.268 24.14V29.74C269.268 30.1533 269.355 30.3867 269.528 30.44C269.622 30.48 269.748 30.5 269.908 30.5H270.008C270.115 30.5 270.168 30.5467 270.168 30.64V31.86Z" fill="#1E1E1E"/>
<path d="M119.048 54.144C118.077 54.144 117.357 53.9413 116.888 53.536C116.429 53.1307 116.2 52.4907 116.2 51.616V41.312H118.248V52.128C118.248 52.2667 118.317 52.336 118.456 52.336H122.872C123.011 52.336 123.08 52.2667 123.08 52.128V41.312H125.144V51.616C125.144 52.4907 124.909 53.1307 124.44 53.536C123.971 53.9413 123.256 54.144 122.296 54.144H119.048ZM135.032 49.296L137.416 54H135.256L132.68 48.672C132.616 48.544 132.531 48.48 132.424 48.48H131.32C131.203 48.48 131.117 48.544 131.064 48.672L128.488 54H126.456L128.792 49.28C129.016 48.8213 129.203 48.4587 129.352 48.192C129.512 47.9147 129.725 47.712 129.992 47.584C129.715 47.456 129.491 47.2587 129.32 46.992C129.149 46.7253 128.968 46.3627 128.776 45.904L126.68 41.312H128.824L131.16 46.512C131.192 46.5867 131.224 46.64 131.256 46.672C131.288 46.704 131.341 46.72 131.416 46.72H132.52C132.637 46.72 132.723 46.6507 132.776 46.512L135.16 41.312H137.192L135.016 45.92C134.792 46.3893 134.6 46.7573 134.44 47.024C134.28 47.2907 134.067 47.488 133.8 47.616C134.067 47.744 134.28 47.9467 134.44 48.224C134.611 48.4907 134.808 48.848 135.032 49.296ZM145.963 40.528L139.723 55.92H137.819L144.107 40.528H145.963ZM150.173 54.144C149.202 54.144 148.482 53.9413 148.013 53.536C147.554 53.1307 147.325 52.4907 147.325 51.616V41.312H149.373V52.128C149.373 52.2667 149.442 52.336 149.581 52.336H153.997C154.136 52.336 154.205 52.2667 154.205 52.128V41.312H156.269V51.616C156.269 52.4907 156.034 53.1307 155.565 53.536C155.096 53.9413 154.381 54.144 153.421 54.144H150.173ZM159.085 54V41.312H161.101V54H159.085ZM167.876 41.312L173.428 41.216C174.442 41.1947 175.188 41.408 175.668 41.856C176.159 42.2933 176.404 42.992 176.404 43.952V51.36C176.404 52.3307 176.154 53.0347 175.652 53.472C175.151 53.8987 174.388 54.1067 173.364 54.096L167.876 54V41.312ZM169.892 42.976V52.336H174.1C174.271 52.336 174.356 52.2507 174.356 52.08V43.232C174.356 43.0613 174.271 42.976 174.1 42.976H169.892ZM181.289 54.112C180.318 54.112 179.614 53.9253 179.177 53.552C178.75 53.1787 178.537 52.5493 178.537 51.664V46.4C178.537 45.5147 178.724 44.9067 179.097 44.576C179.47 44.2347 180.11 44.064 181.017 44.064H182.985C183.902 44.064 184.553 44.2347 184.937 44.576C185.332 44.9067 185.529 45.5147 185.529 46.4V50.224H180.489V52.272C180.489 52.4107 180.558 52.48 180.697 52.48H185.273V54.112H181.289ZM180.697 45.632C180.558 45.632 180.489 45.7067 180.489 45.856V48.816H183.593V45.856C183.593 45.7067 183.524 45.632 183.385 45.632H180.697ZM187.129 54.048L187.113 52.48H191.433C191.582 52.48 191.657 52.4107 191.657 52.272V50.016C191.657 49.8667 191.582 49.792 191.433 49.792H189.497C188.579 49.792 187.923 49.6267 187.529 49.296C187.145 48.9547 186.953 48.3573 186.953 47.504V46.448C186.953 45.5627 187.155 44.944 187.561 44.592C187.977 44.2293 188.638 44.0533 189.545 44.064H193.065V45.696L189.129 45.68C188.99 45.68 188.921 45.7547 188.921 45.904V48.048C188.921 48.1973 188.99 48.272 189.129 48.272H191.049C191.966 48.272 192.617 48.4373 193.001 48.768C193.385 49.088 193.577 49.68 193.577 50.544V51.888C193.577 52.6987 193.39 53.264 193.017 53.584C192.654 53.8933 192.067 54.048 191.257 54.048H187.129ZM195.295 42.464V40.672H197.247V42.464H195.295ZM195.295 54V44.208H197.247V54H195.295ZM204.548 56.096V53.072C204.441 53.4347 204.249 53.7067 203.972 53.888C203.694 54.0587 203.316 54.144 202.836 54.144H201.716C200.916 54.144 200.329 53.9893 199.956 53.68C199.593 53.36 199.412 52.7947 199.412 51.984V46.432C199.412 45.5787 199.604 44.9813 199.988 44.64C200.382 44.2987 201.033 44.1387 201.94 44.16L206.5 44.208V55.504C206.5 56.3893 206.281 57.0187 205.844 57.392C205.417 57.7653 204.724 57.952 203.764 57.952H199.716V56.32H204.34C204.478 56.32 204.548 56.2453 204.548 56.096ZM201.54 52.576H204.34C204.478 52.576 204.548 52.5013 204.548 52.352V45.792L201.54 45.776C201.401 45.776 201.332 45.8453 201.332 45.984V52.352C201.332 52.5013 201.401 52.576 201.54 52.576ZM213.263 44.064C214.063 44.064 214.649 44.224 215.023 44.544C215.396 44.864 215.583 45.4293 215.583 46.24V54H213.647V45.856C213.647 45.7067 213.577 45.632 213.439 45.632H210.639C210.489 45.632 210.415 45.7067 210.415 45.856L210.431 54H208.511L208.479 44.208H210.207L210.351 45.2C210.564 44.4427 211.156 44.064 212.127 44.064H213.263ZM220.164 54.112C219.193 54.112 218.489 53.9253 218.052 53.552C217.625 53.1787 217.412 52.5493 217.412 51.664V46.4C217.412 45.5147 217.599 44.9067 217.972 44.576C218.345 44.2347 218.985 44.064 219.892 44.064H221.86C222.777 44.064 223.428 44.2347 223.812 44.576C224.207 44.9067 224.404 45.5147 224.404 46.4V50.224H219.364V52.272C219.364 52.4107 219.433 52.48 219.572 52.48H224.148V54.112H220.164ZM219.572 45.632C219.433 45.632 219.364 45.7067 219.364 45.856V48.816H222.468V45.856C222.468 45.7067 222.399 45.632 222.26 45.632H219.572ZM230.852 44.064V45.632H228.436C228.286 45.632 228.212 45.7067 228.212 45.856L228.228 54H226.308L226.276 44.208H228.004L228.148 45.2C228.361 44.4427 228.953 44.064 229.924 44.064H230.852Z" fill="#1E1E1E"/>
<path d="M275.301 31.9473L275.19 32.166L274.837 32.8565C274.978 32.8926 275.113 32.9365 275.243 32.9883L275.425 33.0684L275.431 33.0703H275.43C275.674 33.1994 275.869 33.3676 276.009 33.5752H276.008C276.164 33.7898 276.238 34.0536 276.238 34.3574C276.238 34.7337 276.133 35.0614 275.917 35.3301L275.916 35.3291C275.714 35.6063 275.411 35.8099 275.021 35.9463C274.628 36.0836 274.148 36.1504 273.585 36.1504C273.413 36.1504 273.246 36.1381 273.083 36.1162C272.933 36.1051 272.806 36.0888 272.704 36.0645L272.589 36.0371V34.8389L272.771 34.8779C272.862 34.8974 272.989 34.9132 273.155 34.9238H273.164V34.9248C273.328 34.9458 273.485 34.9561 273.636 34.9561C274.032 34.956 274.315 34.9024 274.498 34.8096L274.503 34.8067C274.585 34.7694 274.641 34.7187 274.677 34.6563C274.714 34.5925 274.737 34.5065 274.737 34.3906C274.737 34.2784 274.707 34.1879 274.652 34.1133C274.595 34.0373 274.506 33.9676 274.371 33.9102L274.37 33.9092C274.094 33.7867 273.748 33.6975 273.329 33.6445L273.116 33.6182L273.215 33.4268L273.943 32.0283L273.985 31.9473H275.301Z" fill="#1E1E1E" stroke="#1E1E1E" stroke-width="0.3"/>
<path d="M277.609 21.8506V23.8096L277.458 23.8086L273.299 23.793C273.275 23.793 273.26 23.796 273.252 23.7988C273.245 23.8014 273.242 23.8034 273.242 23.8037C273.241 23.8045 273.239 23.8078 273.236 23.8164C273.233 23.8266 273.23 23.8439 273.229 23.8701V26.0488C273.229 26.075 273.233 26.0923 273.236 26.1025C273.239 26.1105 273.241 26.1141 273.242 26.1152C273.242 26.1155 273.245 26.1185 273.252 26.1211C273.26 26.1239 273.276 26.127 273.3 26.127H275.328C276.307 26.127 277.04 26.2945 277.487 26.665H277.486C277.945 27.0337 278.15 27.6938 278.15 28.5859V29.9512C278.15 30.7927 277.95 31.4237 277.504 31.791H277.503C277.079 32.1383 276.416 32.2969 275.548 32.2969H271.037L271.036 32.1484L271.02 30.5547L271.018 30.4033H275.734C275.79 30.4033 275.809 30.391 275.812 30.3887C275.812 30.3884 275.814 30.3868 275.815 30.3818C275.818 30.3758 275.821 30.3633 275.821 30.3418V28.0488C275.821 27.9978 275.808 27.9865 275.808 27.9863C275.805 27.9843 275.789 27.9717 275.734 27.9717H273.688C272.71 27.9717 271.973 27.8035 271.515 27.4346L271.511 27.4316V27.4307C271.056 27.0415 270.85 26.3799 270.85 25.4961V24.4229C270.85 23.5059 271.067 22.8217 271.546 22.4219C272.026 22.0194 272.768 21.8408 273.739 21.8516V21.8506H277.609Z" fill="#1E1E1E" stroke="#1E1E1E" stroke-width="0.3"/>
</svg>
